<svg xmlns="http://www.w3.org/2000/svg" viewBox="0 0 94 316"><defs><clipPath id="a"><path fill="none" d="M0 0h94v316H0z"/></clipPath></defs><g clip-path="url(#a)" data-name="Repeat Grid 11" opacity=".081"><circle cx="4" cy="4" r="4" fill="#0d9206" data-name="Ellipse 8"/><circle cx="4" cy="4" r="4" fill="#0d9206" data-name="Ellipse 8" transform="translate(20)"/><circle cx="4" cy="4" r="4" fill="#0d9206" data-name="Ellipse 8" transform="translate(40)"/><circle cx="4" cy="4" r="4" fill="#0d9206" data-name="Ellipse 8" transform="translate(60)"/><circle cx="4" cy="4" r="4" fill="#0d9206" data-name="Ellipse 8" transform="translate(80)"/><circle cx="4" cy="4" r="4" fill="#0d9206" data-name="Ellipse 8" transform="translate(0 20)"/><circle cx="4" cy="4" r="4" fill="#0d9206" data-name="Ellipse 8" transform="translate(20 20)"/><circle cx="4" cy="4" r="4" fill="#0d9206" data-name="Ellipse 8" transform="translate(40 20)"/><circle cx="4" cy="4" r="4" fill="#0d9206" data-name="Ellipse 8" transform="translate(60 20)"/><circle cx="4" cy="4" r="4" fill="#0d9206" data-name="Ellipse 8" transform="translate(80 20)"/><circle cx="4" cy="4" r="4" fill="#0d9206" data-name="Ellipse 8" transform="translate(0 40)"/><circle cx="4" cy="4" r="4" fill="#0d9206" data-name="Ellipse 8" transform="translate(20 40)"/><circle cx="4" cy="4" r="4" fill="#0d9206" data-name="Ellipse 8" transform="translate(40 40)"/><circle cx="4" cy="4" r="4" fill="#0d9206" data-name="Ellipse 8" transform="translate(60 40)"/><circle cx="4" cy="4" r="4" fill="#0d9206" data-name="Ellipse 8" transform="translate(80 40)"/><circle cx="4" cy="4" r="4" fill="#0d9206" data-name="Ellipse 8" transform="translate(0 60)"/><circle cx="4" cy="4" r="4" fill="#0d9206" data-name="Ellipse 8" transform="translate(20 60)"/><circle cx="4" cy="4" r="4" fill="#0d9206" data-name="Ellipse 8" transform="translate(40 60)"/><circle cx="4" cy="4" r="4" fill="#0d9206" data-name="Ellipse 8" transform="translate(60 60)"/><circle cx="4" cy="4" r="4" fill="#0d9206" data-name="Ellipse 8" transform="translate(80 60)"/><circle cx="4" cy="4" r="4" fill="#0d9206" data-name="Ellipse 8" transform="translate(0 80)"/><circle cx="4" cy="4" r="4" fill="#0d9206" data-name="Ellipse 8" transform="translate(20 80)"/><circle cx="4" cy="4" r="4" fill="#0d9206" data-name="Ellipse 8" transform="translate(40 80)"/><circle cx="4" cy="4" r="4" fill="#0d9206" data-name="Ellipse 8" transform="translate(60 80)"/><circle cx="4" cy="4" r="4" fill="#0d9206" data-name="Ellipse 8" transform="translate(80 80)"/><circle cx="4" cy="4" r="4" fill="#0d9206" data-name="Ellipse 8" transform="translate(0 100)"/><circle cx="4" cy="4" r="4" fill="#0d9206" data-name="Ellipse 8" transform="translate(20 100)"/><circle cx="4" cy="4" r="4" fill="#0d9206" data-name="Ellipse 8" transform="translate(40 100)"/><circle cx="4" cy="4" r="4" fill="#0d9206" data-name="Ellipse 8" transform="translate(60 100)"/><circle cx="4" cy="4" r="4" fill="#0d9206" data-name="Ellipse 8" transform="translate(80 100)"/><circle cx="4" cy="4" r="4" fill="#0d9206" data-name="Ellipse 8" transform="translate(0 120)"/><circle cx="4" cy="4" r="4" fill="#0d9206" data-name="Ellipse 8" transform="translate(20 120)"/><circle cx="4" cy="4" r="4" fill="#0d9206" data-name="Ellipse 8" transform="translate(40 120)"/><circle cx="4" cy="4" r="4" fill="#0d9206" data-name="Ellipse 8" transform="translate(60 120)"/><circle cx="4" cy="4" r="4" fill="#0d9206" data-name="Ellipse 8" transform="translate(80 120)"/><circle cx="4" cy="4" r="4" fill="#0d9206" data-name="Ellipse 8" transform="translate(0 140)"/><circle cx="4" cy="4" r="4" fill="#0d9206" data-name="Ellipse 8" transform="translate(20 140)"/><circle cx="4" cy="4" r="4" fill="#0d9206" data-name="Ellipse 8" transform="translate(40 140)"/><circle cx="4" cy="4" r="4" fill="#0d9206" data-name="Ellipse 8" transform="translate(60 140)"/><circle cx="4" cy="4" r="4" fill="#0d9206" data-name="Ellipse 8" transform="translate(80 140)"/><circle cx="4" cy="4" r="4" fill="#0d9206" data-name="Ellipse 8" transform="translate(0 160)"/><circle cx="4" cy="4" r="4" fill="#0d9206" data-name="Ellipse 8" transform="translate(20 160)"/><circle cx="4" cy="4" r="4" fill="#0d9206" data-name="Ellipse 8" transform="translate(40 160)"/><circle cx="4" cy="4" r="4" fill="#0d9206" data-name="Ellipse 8" transform="translate(60 160)"/><circle cx="4" cy="4" r="4" fill="#0d9206" data-name="Ellipse 8" transform="translate(80 160)"/><circle cx="4" cy="4" r="4" fill="#0d9206" data-name="Ellipse 8" transform="translate(0 180)"/><circle cx="4" cy="4" r="4" fill="#0d9206" data-name="Ellipse 8" transform="translate(20 180)"/><circle cx="4" cy="4" r="4" fill="#0d9206" data-name="Ellipse 8" transform="translate(40 180)"/><circle cx="4" cy="4" r="4" fill="#0d9206" data-name="Ellipse 8" transform="translate(60 180)"/><circle cx="4" cy="4" r="4" fill="#0d9206" data-name="Ellipse 8" transform="translate(80 180)"/><circle cx="4" cy="4" r="4" fill="#0d9206" data-name="Ellipse 8" transform="translate(0 200)"/><circle cx="4" cy="4" r="4" fill="#0d9206" data-name="Ellipse 8" transform="translate(20 200)"/><circle cx="4" cy="4" r="4" fill="#0d9206" data-name="Ellipse 8" transform="translate(40 200)"/><circle cx="4" cy="4" r="4" fill="#0d9206" data-name="Ellipse 8" transform="translate(60 200)"/><circle cx="4" cy="4" r="4" fill="#0d9206" data-name="Ellipse 8" transform="translate(80 200)"/><circle cx="4" cy="4" r="4" fill="#0d9206" data-name="Ellipse 8" transform="translate(0 220)"/><circle cx="4" cy="4" r="4" fill="#0d9206" data-name="Ellipse 8" transform="translate(20 220)"/><circle cx="4" cy="4" r="4" fill="#0d9206" data-name="Ellipse 8" transform="translate(40 220)"/><circle cx="4" cy="4" r="4" fill="#0d9206" data-name="Ellipse 8" transform="translate(60 220)"/><circle cx="4" cy="4" r="4" fill="#0d9206" data-name="Ellipse 8" transform="translate(80 220)"/><circle cx="4" cy="4" r="4" fill="#0d9206" data-name="Ellipse 8" transform="translate(0 240)"/><circle cx="4" cy="4" r="4" fill="#0d9206" data-name="Ellipse 8" transform="translate(20 240)"/><circle cx="4" cy="4" r="4" fill="#0d9206" data-name="Ellipse 8" transform="translate(40 240)"/><circle cx="4" cy="4" r="4" fill="#0d9206" data-name="Ellipse 8" transform="translate(60 240)"/><circle cx="4" cy="4" r="4" fill="#0d9206" data-name="Ellipse 8" transform="translate(80 240)"/><circle cx="4" cy="4" r="4" fill="#0d9206" data-name="Ellipse 8" transform="translate(0 260)"/><circle cx="4" cy="4" r="4" fill="#0d9206" data-name="Ellipse 8" transform="translate(20 260)"/><circle cx="4" cy="4" r="4" fill="#0d9206" data-name="Ellipse 8" transform="translate(40 260)"/><circle cx="4" cy="4" r="4" fill="#0d9206" data-name="Ellipse 8" transform="translate(60 260)"/><circle cx="4" cy="4" r="4" fill="#0d9206" data-name="Ellipse 8" transform="translate(80 260)"/><circle cx="4" cy="4" r="4" fill="#0d9206" data-name="Ellipse 8" transform="translate(0 280)"/><circle cx="4" cy="4" r="4" fill="#0d9206" data-name="Ellipse 8" transform="translate(20 280)"/><circle cx="4" cy="4" r="4" fill="#0d9206" data-name="Ellipse 8" transform="translate(40 280)"/><circle cx="4" cy="4" r="4" fill="#0d9206" data-name="Ellipse 8" transform="translate(60 280)"/><circle cx="4" cy="4" r="4" fill="#0d9206" data-name="Ellipse 8" transform="translate(80 280)"/><circle cx="4" cy="4" r="4" fill="#0d9206" data-name="Ellipse 8" transform="translate(0 300)"/><circle cx="4" cy="4" r="4" fill="#0d9206" data-name="Ellipse 8" transform="translate(20 300)"/><circle cx="4" cy="4" r="4" fill="#0d9206" data-name="Ellipse 8" transform="translate(40 300)"/><circle cx="4" cy="4" r="4" fill="#0d9206" data-name="Ellipse 8" transform="translate(60 300)"/><circle cx="4" cy="4" r="4" fill="#0d9206" data-name="Ellipse 8" transform="translate(80 300)"/></g></svg>